# xmcd CD database file
#
# Track frame offsets:
#	150
#	28450
#	50933
#	61860
#	79871
#	97005
#	118632
#	139360
#	156333
#	174707
#
# Disc length: 2646 seconds
#
# Revision: 0
# Processed by: cddbd v1.5.1PL2 Copyright (c) Steve Scherf et al.
# Submitted via: CDex 1.60beta1-cs1
#
DISCID=960a540a
DTITLE=霧生トシ子、太田寛二 - ジャズ・アレンジ Vo1.6
DYEAR=1900
DGENRE=Jazz
TTITLE0=アイルランドの子守歌
TTITLE1=シューベルトの子守歌
TTITLE2=ブラームスの子守歌
TTITLE3=モーツァルトの子守歌
TTITLE4=ジョスランの子守歌(ゴダール)
TTITLE5=眠りの精(ブラームス)
TTITLE6=ホフマンの舟歌(オッフェンバック)
TTITLE7=ワルツ・ロマンティック(ドビュッシー)
TTITLE8=メヌエット(ボッケリーニ)
TTITLE9=グノシェンヌ第1番(サティ)
EXTD=
EXTT0=
EXTT1=
EXTT2=
EXTT3=
EXTT4=
EXTT5=
EXTT6=
EXTT7=
EXTT8=
EXTT9=
PLAYORDER=
